<svg width="616" height="279" viewBox="0 0 616 279" fill="none" xmlns="http://www.w3.org/2000/svg">
<g clip-path="url(#clip0_1_296)">
<path d="M3.232 7.534C2.92 7.534 2.656 7.426 2.44 7.21C2.224 6.994 2.116 6.73 2.116 6.418C2.116 6.106 2.224 5.842 2.44 5.626C2.656 5.41 2.92 5.302 3.232 5.302C3.532 5.302 3.784 5.41 3.988 5.626C4.204 5.842 4.312 6.106 4.312 6.418C4.312 6.73 4.204 6.994 3.988 7.21C3.784 7.426 3.532 7.534 3.232 7.534ZM4.024 9.136V19H2.386V9.136H4.024ZM8.45369 5.68V19H6.81569V5.68H8.45369ZM12.8834 5.68V19H11.2454V5.68H12.8834ZM24.4231 9.136V19H22.7851V17.542C22.4731 18.046 22.0351 18.442 21.4711 18.73C20.9191 19.006 20.3071 19.144 19.6351 19.144C18.8671 19.144 18.1771 18.988 17.5651 18.676C16.9531 18.352 16.4671 17.872 16.1071 17.236C15.7591 16.6 15.5851 15.826 15.5851 14.914V9.136H17.2051V14.698C17.2051 15.67 17.4511 16.42 17.9431 16.948C18.4351 17.464 19.1071 17.722 19.9591 17.722C20.8351 17.722 21.5251 17.452 22.0291 16.912C22.5331 16.372 22.7851 15.586 22.7851 14.554V9.136H24.4231ZM30.6807 19.162C29.9247 19.162 29.2467 19.036 28.6467 18.784C28.0467 18.52 27.5727 18.16 27.2247 17.704C26.8767 17.236 26.6847 16.702 26.6487 16.102H28.3407C28.3887 16.594 28.6167 16.996 29.0247 17.308C29.4447 17.62 29.9907 17.776 30.6627 17.776C31.2867 17.776 31.7787 17.638 32.1387 17.362C32.4987 17.086 32.6787 16.738 32.6787 16.318C32.6787 15.886 32.4867 15.568 32.1027 15.364C31.7187 15.148 31.1247 14.938 30.3207 14.734C29.5887 14.542 28.9887 14.35 28.5207 14.158C28.0647 13.954 27.6687 13.66 27.3327 13.276C27.0087 12.88 26.8467 12.364 26.8467 11.728C26.8467 11.224 26.9967 10.762 27.2967 10.342C27.5967 9.922 28.0227 9.592 28.5747 9.352C29.1267 9.1 29.7567 8.974 30.4647 8.974C31.5567 8.974 32.4387 9.25 33.1107 9.802C33.7827 10.354 34.1427 11.11 34.1907 12.07H32.5527C32.5167 11.554 32.3067 11.14 31.9227 10.828C31.5507 10.516 31.0467 10.36 30.4107 10.36C29.8227 10.36 29.3547 10.486 29.0067 10.738C28.6587 10.99 28.4847 11.32 28.4847 11.728C28.4847 12.052 28.5867 12.322 28.7907 12.538C29.0067 12.742 29.2707 12.91 29.5827 13.042C29.9067 13.162 30.3507 13.3 30.9147 13.456C31.6227 13.648 32.1987 13.84 32.6427 14.032C33.0867 14.212 33.4647 14.488 33.7767 14.86C34.1007 15.232 34.2687 15.718 34.2807 16.318C34.2807 16.858 34.1307 17.344 33.8307 17.776C33.5307 18.208 33.1047 18.55 32.5527 18.802C32.0127 19.042 31.3887 19.162 30.6807 19.162ZM38.591 10.486V16.3C38.591 16.78 38.693 17.122 38.897 17.326C39.101 17.518 39.455 17.614 39.959 17.614H41.165V19H39.689C38.777 19 38.093 18.79 37.637 18.37C37.181 17.95 36.953 17.26 36.953 16.3V10.486H35.675V9.136H36.953V6.652H38.591V9.136H41.165V10.486H38.591ZM44.7877 10.738C45.0757 10.174 45.4837 9.736 46.0117 9.424C46.5517 9.112 47.2057 8.956 47.9737 8.956V10.648H47.5417C45.7057 10.648 44.7877 11.644 44.7877 13.636V19H43.1497V9.136H44.7877V10.738ZM49.2525 14.032C49.2525 13.024 49.4565 12.142 49.8645 11.386C50.2725 10.618 50.8305 10.024 51.5385 9.604C52.2585 9.184 53.0565 8.974 53.9325 8.974C54.7965 8.974 55.5465 9.16 56.1825 9.532C56.8185 9.904 57.2925 10.372 57.6045 10.936V9.136H59.2605V19H57.6045V17.164C57.2805 17.74 56.7945 18.22 56.1465 18.604C55.5105 18.976 54.7665 19.162 53.9145 19.162C53.0385 19.162 52.2465 18.946 51.5385 18.514C50.8305 18.082 50.2725 17.476 49.8645 16.696C49.4565 15.916 49.2525 15.028 49.2525 14.032ZM57.6045 14.05C57.6045 13.306 57.4545 12.658 57.1545 12.106C56.8545 11.554 56.4465 11.134 55.9305 10.846C55.4265 10.546 54.8685 10.396 54.2565 10.396C53.6445 10.396 53.0865 10.54 52.5825 10.828C52.0785 11.116 51.6765 11.536 51.3765 12.088C51.0765 12.64 50.9265 13.288 50.9265 14.032C50.9265 14.788 51.0765 15.448 51.3765 16.012C51.6765 16.564 52.0785 16.99 52.5825 17.29C53.0865 17.578 53.6445 17.722 54.2565 17.722C54.8685 17.722 55.4265 17.578 55.9305 17.29C56.4465 16.99 56.8545 16.564 57.1545 16.012C57.4545 15.448 57.6045 14.794 57.6045 14.05ZM64.0266 10.486V16.3C64.0266 16.78 64.1286 17.122 64.3326 17.326C64.5366 17.518 64.8906 17.614 65.3946 17.614H66.6006V19H65.1246C64.2126 19 63.5286 18.79 63.0726 18.37C62.6166 17.95 62.3886 17.26 62.3886 16.3V10.486H61.1106V9.136H62.3886V6.652H64.0266V9.136H66.6006V10.486H64.0266ZM69.4312 7.534C69.1192 7.534 68.8552 7.426 68.6392 7.21C68.4232 6.994 68.3152 6.73 68.3152 6.418C68.3152 6.106 68.4232 5.842 68.6392 5.626C68.8552 5.41 69.1192 5.302 69.4312 5.302C69.7312 5.302 69.9832 5.41 70.1872 5.626C70.4032 5.842 70.5112 6.106 70.5112 6.418C70.5112 6.73 70.4032 6.994 70.1872 7.21C69.9832 7.426 69.7312 7.534 69.4312 7.534ZM70.2232 9.136V19H68.5852V9.136H70.2232ZM77.3169 19.162C76.3929 19.162 75.5529 18.952 74.7969 18.532C74.0529 18.112 73.4649 17.518 73.0329 16.75C72.6129 15.97 72.4029 15.07 72.4029 14.05C72.4029 13.042 72.6189 12.154 73.0509 11.386C73.4949 10.606 74.0949 10.012 74.8509 9.604C75.6069 9.184 76.4529 8.974 77.3889 8.974C78.3249 8.974 79.1709 9.184 79.9269 9.604C80.6829 10.012 81.2769 10.6 81.7089 11.368C82.1529 12.136 82.3749 13.03 82.3749 14.05C82.3749 15.07 82.1469 15.97 81.6909 16.75C81.2469 17.518 80.6409 18.112 79.8729 18.532C79.1049 18.952 78.2529 19.162 77.3169 19.162ZM77.3169 17.722C77.9049 17.722 78.4569 17.584 78.9729 17.308C79.4889 17.032 79.9029 16.618 80.2149 16.066C80.5389 15.514 80.7009 14.842 80.7009 14.05C80.7009 13.258 80.5449 12.586 80.2329 12.034C79.9209 11.482 79.5129 11.074 79.0089 10.81C78.5049 10.534 77.9589 10.396 77.3709 10.396C76.7709 10.396 76.2189 10.534 75.7149 10.81C75.2229 11.074 74.8269 11.482 74.5269 12.034C74.2269 12.586 74.0769 13.258 74.0769 14.05C74.0769 14.854 74.2209 15.532 74.5089 16.084C74.8089 16.636 75.2049 17.05 75.6969 17.326C76.1889 17.59 76.7289 17.722 77.3169 17.722ZM89.3346 8.956C90.5346 8.956 91.5066 9.322 92.2506 10.054C92.9946 10.774 93.3666 11.818 93.3666 13.186V19H91.7466V13.42C91.7466 12.436 91.5006 11.686 91.0086 11.17C90.5166 10.642 89.8446 10.378 88.9926 10.378C88.1286 10.378 87.4386 10.648 86.9226 11.188C86.4186 11.728 86.1666 12.514 86.1666 13.546V19H84.5286V9.136H86.1666V10.54C86.4906 10.036 86.9286 9.646 87.4806 9.37C88.0446 9.094 88.6626 8.956 89.3346 8.956Z" fill="#222222"/>
<path d="M502.685 20.09C502.785 20.66 503.015 21.1 503.375 21.41C503.745 21.72 504.24 21.875 504.86 21.875C505.69 21.875 506.3 21.55 506.69 20.9C507.09 20.25 507.28 19.155 507.26 17.615C507.05 18.065 506.7 18.42 506.21 18.68C505.72 18.93 505.175 19.055 504.575 19.055C503.905 19.055 503.305 18.92 502.775 18.65C502.255 18.37 501.845 17.965 501.545 17.435C501.245 16.905 501.095 16.265 501.095 15.515C501.095 14.445 501.405 13.585 502.025 12.935C502.645 12.275 503.525 11.945 504.665 11.945C506.065 11.945 507.045 12.4 507.605 13.31C508.175 14.22 508.46 15.575 508.46 17.375C508.46 18.635 508.345 19.675 508.115 20.495C507.895 21.315 507.515 21.94 506.975 22.37C506.445 22.8 505.715 23.015 504.785 23.015C503.765 23.015 502.97 22.74 502.4 22.19C501.83 21.64 501.505 20.94 501.425 20.09H502.685ZM504.8 17.9C505.47 17.9 506.02 17.695 506.45 17.285C506.88 16.865 507.095 16.3 507.095 15.59C507.095 14.84 506.885 14.235 506.465 13.775C506.045 13.315 505.455 13.085 504.695 13.085C503.995 13.085 503.435 13.305 503.015 13.745C502.605 14.185 502.4 14.765 502.4 15.485C502.4 16.215 502.605 16.8 503.015 17.24C503.425 17.68 504.02 17.9 504.8 17.9ZM510.378 17.465C510.378 15.745 510.658 14.405 511.218 13.445C511.778 12.475 512.758 11.99 514.158 11.99C515.548 11.99 516.523 12.475 517.083 13.445C517.643 14.405 517.923 15.745 517.923 17.465C517.923 19.215 517.643 20.575 517.083 21.545C516.523 22.515 515.548 23 514.158 23C512.758 23 511.778 22.515 511.218 21.545C510.658 20.575 510.378 19.215 510.378 17.465ZM516.573 17.465C516.573 16.595 516.513 15.86 516.393 15.26C516.283 14.65 516.048 14.16 515.688 13.79C515.338 13.42 514.828 13.235 514.158 13.235C513.478 13.235 512.958 13.42 512.598 13.79C512.248 14.16 512.013 14.65 511.893 15.26C511.783 15.86 511.728 16.595 511.728 17.465C511.728 18.365 511.783 19.12 511.893 19.73C512.013 20.34 512.248 20.83 512.598 21.2C512.958 21.57 513.478 21.755 514.158 21.755C514.828 21.755 515.338 21.57 515.688 21.2C516.048 20.83 516.283 20.34 516.393 19.73C516.513 19.12 516.573 18.365 516.573 17.465ZM519.497 14.6C519.497 13.92 519.702 13.38 520.112 12.98C520.522 12.57 521.047 12.365 521.687 12.365C522.327 12.365 522.852 12.57 523.262 12.98C523.672 13.38 523.877 13.92 523.877 14.6C523.877 15.29 523.672 15.84 523.262 16.25C522.852 16.65 522.327 16.85 521.687 16.85C521.047 16.85 520.522 16.65 520.112 16.25C519.702 15.84 519.497 15.29 519.497 14.6ZM528.257 12.53L522.182 23H520.832L526.907 12.53H528.257ZM521.687 13.205C521.347 13.205 521.077 13.325 520.877 13.565C520.687 13.795 520.592 14.14 520.592 14.6C520.592 15.06 520.687 15.41 520.877 15.65C521.077 15.89 521.347 16.01 521.687 16.01C522.027 16.01 522.297 15.89 522.497 15.65C522.697 15.4 522.797 15.05 522.797 14.6C522.797 14.14 522.697 13.795 522.497 13.565C522.297 13.325 522.027 13.205 521.687 13.205ZM525.242 20.93C525.242 20.24 525.447 19.695 525.857 19.295C526.267 18.885 526.792 18.68 527.432 18.68C528.072 18.68 528.592 18.885 528.992 19.295C529.402 19.695 529.607 20.24 529.607 20.93C529.607 21.61 529.402 22.155 528.992 22.565C528.592 22.975 528.072 23.18 527.432 23.18C526.792 23.18 526.267 22.98 525.857 22.58C525.447 22.17 525.242 21.62 525.242 20.93ZM527.417 19.535C527.077 19.535 526.807 19.655 526.607 19.895C526.407 20.125 526.307 20.47 526.307 20.93C526.307 21.38 526.407 21.725 526.607 21.965C526.807 22.195 527.077 22.31 527.417 22.31C527.757 22.31 528.027 22.195 528.227 21.965C528.427 21.725 528.527 21.38 528.527 20.93C528.527 20.47 528.427 20.125 528.227 19.895C528.027 19.655 527.757 19.535 527.417 19.535Z" fill="#999999"/>
<path d="M1 38H601V48H1V38Z" fill="#EEEEEE"/>
<path d="M1 38H541V48H1V38Z" fill="url(#paint0_linear_1_296)"/>
</g>
<g clip-path="url(#clip1_1_296)">
<path d="M14.719 102.684L11.812 112H10.214L7.97 104.605L5.726 112H4.128L1.204 102.684H2.785L4.927 110.504L7.239 102.684H8.82L11.081 110.521L13.189 102.684H14.719ZM24.7543 106.985C24.7543 107.28 24.7373 107.591 24.7033 107.92H17.2573C17.314 108.838 17.6256 109.558 18.1923 110.079C18.7703 110.589 19.4673 110.844 20.2833 110.844C20.952 110.844 21.5073 110.691 21.9493 110.385C22.4026 110.068 22.72 109.648 22.9013 109.127H24.5673C24.318 110.022 23.8193 110.753 23.0713 111.32C22.3233 111.875 21.394 112.153 20.2833 112.153C19.3993 112.153 18.606 111.955 17.9033 111.558C17.212 111.161 16.668 110.6 16.2713 109.875C15.8746 109.138 15.6763 108.288 15.6763 107.325C15.6763 106.362 15.869 105.517 16.2543 104.792C16.6396 104.067 17.178 103.511 17.8693 103.126C18.572 102.729 19.3766 102.531 20.2833 102.531C21.1673 102.531 21.9493 102.724 22.6293 103.109C23.3093 103.494 23.8306 104.027 24.1933 104.707C24.5673 105.376 24.7543 106.135 24.7543 106.985ZM23.1563 106.662C23.1563 106.073 23.026 105.568 22.7653 105.149C22.5046 104.718 22.1476 104.395 21.6943 104.18C21.2523 103.953 20.7593 103.84 20.2153 103.84C19.4333 103.84 18.7646 104.089 18.2093 104.588C17.6653 105.087 17.3536 105.778 17.2743 106.662H23.1563ZM28.3433 104.418C28.6606 103.863 29.1253 103.409 29.7373 103.058C30.3493 102.707 31.0463 102.531 31.8283 102.531C32.667 102.531 33.4206 102.729 34.0893 103.126C34.758 103.523 35.285 104.084 35.6703 104.809C36.0556 105.523 36.2483 106.356 36.2483 107.308C36.2483 108.249 36.0556 109.087 35.6703 109.824C35.285 110.561 34.7523 111.133 34.0723 111.541C33.4036 111.949 32.6556 112.153 31.8283 112.153C31.0236 112.153 30.3153 111.977 29.7033 111.626C29.1026 111.275 28.6493 110.827 28.3433 110.283V112H26.7963V99.42H28.3433V104.418ZM34.6673 107.308C34.6673 106.605 34.5256 105.993 34.2423 105.472C33.959 104.951 33.5736 104.554 33.0863 104.282C32.6103 104.01 32.0833 103.874 31.5053 103.874C30.9386 103.874 30.4116 104.016 29.9243 104.299C29.4483 104.571 29.063 104.973 28.7683 105.506C28.485 106.027 28.3433 106.634 28.3433 107.325C28.3433 108.028 28.485 108.645 28.7683 109.178C29.063 109.699 29.4483 110.102 29.9243 110.385C30.4116 110.657 30.9386 110.793 31.5053 110.793C32.0833 110.793 32.6103 110.657 33.0863 110.385C33.5736 110.102 33.959 109.699 34.2423 109.178C34.5256 108.645 34.6673 108.022 34.6673 107.308ZM42.2388 107.308C42.2388 106.356 42.4315 105.523 42.8168 104.809C43.2021 104.084 43.7291 103.523 44.3978 103.126C45.0778 102.729 45.8371 102.531 46.6758 102.531C47.4011 102.531 48.0755 102.701 48.6988 103.041C49.3221 103.37 49.7981 103.806 50.1268 104.35V99.42H51.6908V112H50.1268V110.249C49.8208 110.804 49.3675 111.263 48.7668 111.626C48.1661 111.977 47.4635 112.153 46.6588 112.153C45.8315 112.153 45.0778 111.949 44.3978 111.541C43.7291 111.133 43.2021 110.561 42.8168 109.824C42.4315 109.087 42.2388 108.249 42.2388 107.308ZM50.1268 107.325C50.1268 106.622 49.9851 106.01 49.7018 105.489C49.4185 104.968 49.0331 104.571 48.5458 104.299C48.0698 104.016 47.5428 103.874 46.9648 103.874C46.3868 103.874 45.8598 104.01 45.3838 104.282C44.9078 104.554 44.5281 104.951 44.2448 105.472C43.9615 105.993 43.8198 106.605 43.8198 107.308C43.8198 108.022 43.9615 108.645 44.2448 109.178C44.5281 109.699 44.9078 110.102 45.3838 110.385C45.8598 110.657 46.3868 110.793 46.9648 110.793C47.5428 110.793 48.0698 110.657 48.5458 110.385C49.0331 110.102 49.4185 109.699 49.7018 109.178C49.9851 108.645 50.1268 108.028 50.1268 107.325ZM62.8051 106.985C62.8051 107.28 62.7881 107.591 62.7541 107.92H55.3081C55.3648 108.838 55.6764 109.558 56.2431 110.079C56.8211 110.589 57.5181 110.844 58.3341 110.844C59.0028 110.844 59.5581 110.691 60.0001 110.385C60.4534 110.068 60.7708 109.648 60.9521 109.127H62.6181C62.3688 110.022 61.8701 110.753 61.1221 111.32C60.3741 111.875 59.4448 112.153 58.3341 112.153C57.4501 112.153 56.6568 111.955 55.9541 111.558C55.2628 111.161 54.7188 110.6 54.3221 109.875C53.9254 109.138 53.7271 108.288 53.7271 107.325C53.7271 106.362 53.9198 105.517 54.3051 104.792C54.6904 104.067 55.2288 103.511 55.9201 103.126C56.6228 102.729 57.4274 102.531 58.3341 102.531C59.2181 102.531 60.0001 102.724 60.6801 103.109C61.3601 103.494 61.8814 104.027 62.2441 104.707C62.6181 105.376 62.8051 106.135 62.8051 106.985ZM61.2071 106.662C61.2071 106.073 61.0768 105.568 60.8161 105.149C60.5554 104.718 60.1984 104.395 59.7451 104.18C59.3031 103.953 58.8101 103.84 58.2661 103.84C57.4841 103.84 56.8154 104.089 56.2601 104.588C55.7161 105.087 55.4044 105.778 55.3251 106.662H61.2071ZM68.1451 112.153C67.4311 112.153 66.7908 112.034 66.2241 111.796C65.6574 111.547 65.2098 111.207 64.8811 110.776C64.5524 110.334 64.3711 109.83 64.3371 109.263H65.9351C65.9804 109.728 66.1958 110.107 66.5811 110.402C66.9778 110.697 67.4934 110.844 68.1281 110.844C68.7174 110.844 69.1821 110.714 69.5221 110.453C69.8621 110.192 70.0321 109.864 70.0321 109.467C70.0321 109.059 69.8508 108.759 69.4881 108.566C69.1254 108.362 68.5644 108.164 67.8051 107.971C67.1138 107.79 66.5471 107.608 66.1051 107.427C65.6744 107.234 65.3004 106.957 64.9831 106.594C64.6771 106.22 64.5241 105.733 64.5241 105.132C64.5241 104.656 64.6658 104.22 64.9491 103.823C65.2324 103.426 65.6348 103.115 66.1561 102.888C66.6774 102.65 67.2724 102.531 67.9411 102.531C68.9724 102.531 69.8054 102.792 70.4401 103.313C71.0748 103.834 71.4148 104.548 71.4601 105.455H69.9131C69.8791 104.968 69.6808 104.577 69.3181 104.282C68.9668 103.987 68.4908 103.84 67.8901 103.84C67.3348 103.84 66.8928 103.959 66.5641 104.197C66.2354 104.435 66.0711 104.747 66.0711 105.132C66.0711 105.438 66.1674 105.693 66.3601 105.897C66.5641 106.09 66.8134 106.248 67.1081 106.373C67.4141 106.486 67.8334 106.617 68.3661 106.764C69.0348 106.945 69.5788 107.127 69.9981 107.308C70.4174 107.478 70.7744 107.739 71.0691 108.09C71.3751 108.441 71.5338 108.9 71.5451 109.467C71.5451 109.977 71.4034 110.436 71.1201 110.844C70.8368 111.252 70.4344 111.575 69.9131 111.813C69.4031 112.04 68.8138 112.153 68.1451 112.153ZM74.5279 101.171C74.2333 101.171 73.9839 101.069 73.7799 100.865C73.5759 100.661 73.4739 100.412 73.4739 100.117C73.4739 99.8223 73.5759 99.573 73.7799 99.369C73.9839 99.165 74.2333 99.063 74.5279 99.063C74.8113 99.063 75.0493 99.165 75.2419 99.369C75.4459 99.573 75.5479 99.8223 75.5479 100.117C75.5479 100.412 75.4459 100.661 75.2419 100.865C75.0493 101.069 74.8113 101.171 74.5279 101.171ZM75.2759 102.684V112H73.7289V102.684H75.2759ZM81.7545 102.531C82.5592 102.531 83.2618 102.707 83.8625 103.058C84.4745 103.409 84.9278 103.851 85.2225 104.384V102.684H86.7865V112.204C86.7865 113.054 86.6052 113.808 86.2425 114.465C85.8798 115.134 85.3585 115.655 84.6785 116.029C84.0098 116.403 83.2278 116.59 82.3325 116.59C81.1085 116.59 80.0885 116.301 79.2725 115.723C78.4565 115.145 77.9748 114.357 77.8275 113.36H79.3575C79.5275 113.927 79.8788 114.38 80.4115 114.72C80.9442 115.071 81.5845 115.247 82.3325 115.247C83.1825 115.247 83.8738 114.981 84.4065 114.448C84.9505 113.915 85.2225 113.167 85.2225 112.204V110.249C84.9165 110.793 84.4632 111.246 83.8625 111.609C83.2618 111.972 82.5592 112.153 81.7545 112.153C80.9272 112.153 80.1735 111.949 79.4935 111.541C78.8248 111.133 78.2978 110.561 77.9125 109.824C77.5272 109.087 77.3345 108.249 77.3345 107.308C77.3345 106.356 77.5272 105.523 77.9125 104.809C78.2978 104.084 78.8248 103.523 79.4935 103.126C80.1735 102.729 80.9272 102.531 81.7545 102.531ZM85.2225 107.325C85.2225 106.622 85.0808 106.01 84.7975 105.489C84.5142 104.968 84.1288 104.571 83.6415 104.299C83.1655 104.016 82.6385 103.874 82.0605 103.874C81.4825 103.874 80.9555 104.01 80.4795 104.282C80.0035 104.554 79.6238 104.951 79.3405 105.472C79.0572 105.993 78.9155 106.605 78.9155 107.308C78.9155 108.022 79.0572 108.645 79.3405 109.178C79.6238 109.699 80.0035 110.102 80.4795 110.385C80.9555 110.657 81.4825 110.793 82.0605 110.793C82.6385 110.793 83.1655 110.657 83.6415 110.385C84.1288 110.102 84.5142 109.699 84.7975 109.178C85.0808 108.645 85.2225 108.028 85.2225 107.325ZM93.9398 102.514C95.0731 102.514 95.9911 102.86 96.6938 103.551C97.3965 104.231 97.7478 105.217 97.7478 106.509V112H96.2178V106.73C96.2178 105.801 95.9855 105.092 95.5208 104.605C95.0561 104.106 94.4215 103.857 93.6168 103.857C92.8008 103.857 92.1491 104.112 91.6618 104.622C91.1858 105.132 90.9478 105.874 90.9478 106.849V112H89.4008V102.684H90.9478V104.01C91.2538 103.534 91.6675 103.166 92.1888 102.905C92.7215 102.644 93.3051 102.514 93.9398 102.514Z" fill="#222222"/>
<path d="M454.91 110.36C454.35 110.14 453.92 109.82 453.62 109.4C453.32 108.98 453.17 108.47 453.17 107.87C453.17 107.33 453.305 106.845 453.575 106.415C453.845 105.975 454.245 105.63 454.775 105.38C455.315 105.12 455.965 104.99 456.725 104.99C457.485 104.99 458.13 105.12 458.66 105.38C459.2 105.63 459.605 105.975 459.875 106.415C460.155 106.845 460.295 107.33 460.295 107.87C460.295 108.45 460.14 108.96 459.83 109.4C459.52 109.83 459.095 110.15 458.555 110.36C459.175 110.55 459.665 110.885 460.025 111.365C460.395 111.835 460.58 112.405 460.58 113.075C460.58 113.725 460.42 114.295 460.1 114.785C459.78 115.265 459.325 115.64 458.735 115.91C458.155 116.17 457.485 116.3 456.725 116.3C455.965 116.3 455.295 116.17 454.715 115.91C454.145 115.64 453.7 115.265 453.38 114.785C453.06 114.295 452.9 113.725 452.9 113.075C452.9 112.405 453.08 111.83 453.44 111.35C453.8 110.87 454.29 110.54 454.91 110.36ZM458.975 108.035C458.975 107.425 458.775 106.955 458.375 106.625C457.975 106.295 457.425 106.13 456.725 106.13C456.035 106.13 455.49 106.295 455.09 106.625C454.69 106.955 454.49 107.43 454.49 108.05C454.49 108.61 454.695 109.06 455.105 109.4C455.525 109.74 456.065 109.91 456.725 109.91C457.395 109.91 457.935 109.74 458.345 109.4C458.765 109.05 458.975 108.595 458.975 108.035ZM456.725 110.96C455.985 110.96 455.38 111.135 454.91 111.485C454.44 111.825 454.205 112.34 454.205 113.03C454.205 113.67 454.43 114.185 454.88 114.575C455.34 114.965 455.955 115.16 456.725 115.16C457.495 115.16 458.105 114.965 458.555 114.575C459.005 114.185 459.23 113.67 459.23 113.03C459.23 112.36 459 111.85 458.54 111.5C458.08 111.14 457.475 110.96 456.725 110.96ZM462.393 110.465C462.393 108.745 462.673 107.405 463.233 106.445C463.793 105.475 464.773 104.99 466.173 104.99C467.563 104.99 468.538 105.475 469.098 106.445C469.658 107.405 469.938 108.745 469.938 110.465C469.938 112.215 469.658 113.575 469.098 114.545C468.538 115.515 467.563 116 466.173 116C464.773 116 463.793 115.515 463.233 114.545C462.673 113.575 462.393 112.215 462.393 110.465ZM468.588 110.465C468.588 109.595 468.528 108.86 468.408 108.26C468.298 107.65 468.063 107.16 467.703 106.79C467.353 106.42 466.843 106.235 466.173 106.235C465.493 106.235 464.973 106.42 464.613 106.79C464.263 107.16 464.028 107.65 463.908 108.26C463.798 108.86 463.743 109.595 463.743 110.465C463.743 111.365 463.798 112.12 463.908 112.73C464.028 113.34 464.263 113.83 464.613 114.2C464.973 114.57 465.493 114.755 466.173 114.755C466.843 114.755 467.353 114.57 467.703 114.2C468.063 113.83 468.298 113.34 468.408 112.73C468.528 112.12 468.588 111.365 468.588 110.465ZM471.512 107.6C471.512 106.92 471.717 106.38 472.127 105.98C472.537 105.57 473.062 105.365 473.702 105.365C474.342 105.365 474.867 105.57 475.277 105.98C475.687 106.38 475.892 106.92 475.892 107.6C475.892 108.29 475.687 108.84 475.277 109.25C474.867 109.65 474.342 109.85 473.702 109.85C473.062 109.85 472.537 109.65 472.127 109.25C471.717 108.84 471.512 108.29 471.512 107.6ZM480.272 105.53L474.197 116H472.847L478.922 105.53H480.272ZM473.702 106.205C473.362 106.205 473.092 106.325 472.892 106.565C472.702 106.795 472.607 107.14 472.607 107.6C472.607 108.06 472.702 108.41 472.892 108.65C473.092 108.89 473.362 109.01 473.702 109.01C474.042 109.01 474.312 108.89 474.512 108.65C474.712 108.4 474.812 108.05 474.812 107.6C474.812 107.14 474.712 106.795 474.512 106.565C474.312 106.325 474.042 106.205 473.702 106.205ZM477.257 113.93C477.257 113.24 477.462 112.695 477.872 112.295C478.282 111.885 478.807 111.68 479.447 111.68C480.087 111.68 480.607 111.885 481.007 112.295C481.417 112.695 481.622 113.24 481.622 113.93C481.622 114.61 481.417 115.155 481.007 115.565C480.607 115.975 480.087 116.18 479.447 116.18C478.807 116.18 478.282 115.98 477.872 115.58C477.462 115.17 477.257 114.62 477.257 113.93ZM479.432 112.535C479.092 112.535 478.822 112.655 478.622 112.895C478.422 113.125 478.322 113.47 478.322 113.93C478.322 114.38 478.422 114.725 478.622 114.965C478.822 115.195 479.092 115.31 479.432 115.31C479.772 115.31 480.042 115.195 480.242 114.965C480.442 114.725 480.542 114.38 480.542 113.93C480.542 113.47 480.442 113.125 480.242 112.895C480.042 112.655 479.772 112.535 479.432 112.535Z" fill="#999999"/>
<path d="M1 131H601V141H1V131Z" fill="#EEEEEE"/>
<path d="M1 131H481V141H1V131Z" fill="url(#paint1_linear_1_296)"/>
</g>
<g clip-path="url(#clip2_1_296)">
<path d="M1.731 200.308C1.731 199.356 1.92367 198.523 2.309 197.809C2.69433 197.084 3.22133 196.523 3.89 196.126C4.57 195.729 5.32933 195.531 6.168 195.531C6.89333 195.531 7.56767 195.701 8.191 196.041C8.81433 196.37 9.29033 196.806 9.619 197.35V192.42H11.183V205H9.619V203.249C9.313 203.804 8.85967 204.263 8.259 204.626C7.65833 204.977 6.95567 205.153 6.151 205.153C5.32367 205.153 4.57 204.949 3.89 204.541C3.22133 204.133 2.69433 203.561 2.309 202.824C1.92367 202.087 1.731 201.249 1.731 200.308ZM9.619 200.325C9.619 199.622 9.47733 199.01 9.194 198.489C8.91067 197.968 8.52533 197.571 8.038 197.299C7.562 197.016 7.035 196.874 6.457 196.874C5.879 196.874 5.352 197.01 4.876 197.282C4.4 197.554 4.02033 197.951 3.737 198.472C3.45367 198.993 3.312 199.605 3.312 200.308C3.312 201.022 3.45367 201.645 3.737 202.178C4.02033 202.699 4.4 203.102 4.876 203.385C5.352 203.657 5.879 203.793 6.457 203.793C7.035 203.793 7.562 203.657 8.038 203.385C8.52533 203.102 8.91067 202.699 9.194 202.178C9.47733 201.645 9.619 201.028 9.619 200.325ZM22.2973 199.985C22.2973 200.28 22.2803 200.591 22.2463 200.92H14.8003C14.8569 201.838 15.1686 202.558 15.7353 203.079C16.3133 203.589 17.0103 203.844 17.8263 203.844C18.4949 203.844 19.0503 203.691 19.4923 203.385C19.9456 203.068 20.2629 202.648 20.4443 202.127H22.1103C21.8609 203.022 21.3623 203.753 20.6143 204.32C19.8663 204.875 18.9369 205.153 17.8263 205.153C16.9423 205.153 16.1489 204.955 15.4463 204.558C14.7549 204.161 14.2109 203.6 13.8143 202.875C13.4176 202.138 13.2193 201.288 13.2193 200.325C13.2193 199.362 13.4119 198.517 13.7973 197.792C14.1826 197.067 14.7209 196.511 15.4123 196.126C16.1149 195.729 16.9196 195.531 17.8263 195.531C18.7103 195.531 19.4923 195.724 20.1723 196.109C20.8523 196.494 21.3736 197.027 21.7363 197.707C22.1103 198.376 22.2973 199.135 22.2973 199.985ZM20.6993 199.662C20.6993 199.073 20.5689 198.568 20.3083 198.149C20.0476 197.718 19.6906 197.395 19.2373 197.18C18.7953 196.953 18.3023 196.84 17.7583 196.84C16.9763 196.84 16.3076 197.089 15.7523 197.588C15.2083 198.087 14.8966 198.778 14.8173 199.662H20.6993ZM27.8073 203.572L30.6973 195.684H32.3463L28.6913 205H26.8893L23.2343 195.684H24.9003L27.8073 203.572ZM42.3686 199.985C42.3686 200.28 42.3516 200.591 42.3176 200.92H34.8716C34.9282 201.838 35.2399 202.558 35.8066 203.079C36.3846 203.589 37.0816 203.844 37.8976 203.844C38.5662 203.844 39.1216 203.691 39.5636 203.385C40.0169 203.068 40.3342 202.648 40.5156 202.127H42.1816C41.9322 203.022 41.4336 203.753 40.6856 204.32C39.9376 204.875 39.0082 205.153 37.8976 205.153C37.0136 205.153 36.2202 204.955 35.5176 204.558C34.8262 204.161 34.2822 203.6 33.8856 202.875C33.4889 202.138 33.2906 201.288 33.2906 200.325C33.2906 199.362 33.4832 198.517 33.8686 197.792C34.2539 197.067 34.7922 196.511 35.4836 196.126C36.1862 195.729 36.9909 195.531 37.8976 195.531C38.7816 195.531 39.5636 195.724 40.2436 196.109C40.9236 196.494 41.4449 197.027 41.8076 197.707C42.1816 198.376 42.3686 199.135 42.3686 199.985ZM40.7706 199.662C40.7706 199.073 40.6402 198.568 40.3796 198.149C40.1189 197.718 39.7619 197.395 39.3086 197.18C38.8666 196.953 38.3736 196.84 37.8296 196.84C37.0476 196.84 36.3789 197.089 35.8236 197.588C35.2796 198.087 34.9679 198.778 34.8886 199.662H40.7706ZM45.9576 192.42V205H44.4106V192.42H45.9576ZM52.6572 205.153C51.7845 205.153 50.9912 204.955 50.2772 204.558C49.5745 204.161 49.0192 203.6 48.6112 202.875C48.2145 202.138 48.0162 201.288 48.0162 200.325C48.0162 199.373 48.2202 198.534 48.6282 197.809C49.0475 197.072 49.6142 196.511 50.3282 196.126C51.0422 195.729 51.8412 195.531 52.7252 195.531C53.6092 195.531 54.4082 195.729 55.1222 196.126C55.8362 196.511 56.3972 197.067 56.8052 197.792C57.2245 198.517 57.4342 199.362 57.4342 200.325C57.4342 201.288 57.2188 202.138 56.7882 202.875C56.3688 203.6 55.7965 204.161 55.0712 204.558C54.3458 204.955 53.5412 205.153 52.6572 205.153ZM52.6572 203.793C53.2125 203.793 53.7338 203.663 54.2212 203.402C54.7085 203.141 55.0995 202.75 55.3942 202.229C55.7002 201.708 55.8532 201.073 55.8532 200.325C55.8532 199.577 55.7058 198.942 55.4112 198.421C55.1165 197.9 54.7312 197.514 54.2552 197.265C53.7792 197.004 53.2635 196.874 52.7082 196.874C52.1415 196.874 51.6202 197.004 51.1442 197.265C50.6795 197.514 50.3055 197.9 50.0222 198.421C49.7388 198.942 49.5972 199.577 49.5972 200.325C49.5972 201.084 49.7332 201.725 50.0052 202.246C50.2885 202.767 50.6625 203.158 51.1272 203.419C51.5918 203.668 52.1018 203.793 52.6572 203.793ZM61.0152 197.401C61.3212 196.868 61.7745 196.426 62.3752 196.075C62.9872 195.712 63.6955 195.531 64.5002 195.531C65.3275 195.531 66.0755 195.729 66.7442 196.126C67.4242 196.523 67.9568 197.084 68.3422 197.809C68.7275 198.523 68.9202 199.356 68.9202 200.308C68.9202 201.249 68.7275 202.087 68.3422 202.824C67.9568 203.561 67.4242 204.133 66.7442 204.541C66.0755 204.949 65.3275 205.153 64.5002 205.153C63.7068 205.153 63.0042 204.977 62.3922 204.626C61.7915 204.263 61.3325 203.816 61.0152 203.283V209.42H59.4682V195.684H61.0152V197.401ZM67.3392 200.308C67.3392 199.605 67.1975 198.993 66.9142 198.472C66.6308 197.951 66.2455 197.554 65.7582 197.282C65.2822 197.01 64.7552 196.874 64.1772 196.874C63.6105 196.874 63.0835 197.016 62.5962 197.299C62.1202 197.571 61.7348 197.973 61.4402 198.506C61.1568 199.027 61.0152 199.634 61.0152 200.325C61.0152 201.028 61.1568 201.645 61.4402 202.178C61.7348 202.699 62.1202 203.102 62.5962 203.385C63.0835 203.657 63.6105 203.793 64.1772 203.793C64.7552 203.793 65.2822 203.657 65.7582 203.385C66.2455 203.102 66.6308 202.699 66.9142 202.178C67.1975 201.645 67.3392 201.022 67.3392 200.308ZM82.1595 195.514C82.8848 195.514 83.5308 195.667 84.0975 195.973C84.6641 196.268 85.1118 196.715 85.4405 197.316C85.7691 197.917 85.9335 198.648 85.9335 199.509V205H84.4035V199.73C84.4035 198.801 84.1711 198.092 83.7065 197.605C83.2531 197.106 82.6355 196.857 81.8535 196.857C81.0488 196.857 80.4085 197.118 79.9325 197.639C79.4565 198.149 79.2185 198.891 79.2185 199.866V205H77.6885V199.73C77.6885 198.801 77.4561 198.092 76.9915 197.605C76.5381 197.106 75.9205 196.857 75.1385 196.857C74.3338 196.857 73.6935 197.118 73.2175 197.639C72.7415 198.149 72.5035 198.891 72.5035 199.866V205H70.9565V195.684H72.5035V197.027C72.8095 196.54 73.2175 196.166 73.7275 195.905C74.2488 195.644 74.8211 195.514 75.4445 195.514C76.2265 195.514 76.9178 195.69 77.5185 196.041C78.1191 196.392 78.5668 196.908 78.8615 197.588C79.1221 196.931 79.5528 196.421 80.1535 196.058C80.7541 195.695 81.4228 195.514 82.1595 195.514ZM96.9711 199.985C96.9711 200.28 96.9541 200.591 96.9201 200.92H89.4741C89.5308 201.838 89.8424 202.558 90.4091 203.079C90.9871 203.589 91.6841 203.844 92.5001 203.844C93.1688 203.844 93.7241 203.691 94.1661 203.385C94.6194 203.068 94.9368 202.648 95.1181 202.127H96.7841C96.5348 203.022 96.0361 203.753 95.2881 204.32C94.5401 204.875 93.6108 205.153 92.5001 205.153C91.6161 205.153 90.8228 204.955 90.1201 204.558C89.4288 204.161 88.8848 203.6 88.4881 202.875C88.0914 202.138 87.8931 201.288 87.8931 200.325C87.8931 199.362 88.0858 198.517 88.4711 197.792C88.8564 197.067 89.3948 196.511 90.0861 196.126C90.7888 195.729 91.5934 195.531 92.5001 195.531C93.3841 195.531 94.1661 195.724 94.8461 196.109C95.5261 196.494 96.0474 197.027 96.4101 197.707C96.7841 198.376 96.9711 199.135 96.9711 199.985ZM95.3731 199.662C95.3731 199.073 95.2428 198.568 94.9821 198.149C94.7214 197.718 94.3644 197.395 93.9111 197.18C93.4691 196.953 92.9761 196.84 92.4321 196.84C91.6501 196.84 90.9814 197.089 90.4261 197.588C89.8821 198.087 89.5704 198.778 89.4911 199.662H95.3731ZM103.552 195.514C104.685 195.514 105.603 195.86 106.306 196.551C107.009 197.231 107.36 198.217 107.36 199.509V205H105.83V199.73C105.83 198.801 105.598 198.092 105.133 197.605C104.668 197.106 104.034 196.857 103.229 196.857C102.413 196.857 101.761 197.112 101.274 197.622C100.798 198.132 100.56 198.874 100.56 199.849V205H99.0131V195.684H100.56V197.01C100.866 196.534 101.28 196.166 101.801 195.905C102.334 195.644 102.917 195.514 103.552 195.514ZM111.774 196.959V202.45C111.774 202.903 111.87 203.226 112.063 203.419C112.256 203.6 112.59 203.691 113.066 203.691H114.205V205H112.811C111.95 205 111.304 204.802 110.873 204.405C110.442 204.008 110.227 203.357 110.227 202.45V196.959H109.02V195.684H110.227V193.338H111.774V195.684H114.205V196.959H111.774Z" fill="#222222"/>
<path d="M531.685 206.09C531.785 206.66 532.015 207.1 532.375 207.41C532.745 207.72 533.24 207.875 533.86 207.875C534.69 207.875 535.3 207.55 535.69 206.9C536.09 206.25 536.28 205.155 536.26 203.615C536.05 204.065 535.7 204.42 535.21 204.68C534.72 204.93 534.175 205.055 533.575 205.055C532.905 205.055 532.305 204.92 531.775 204.65C531.255 204.37 530.845 203.965 530.545 203.435C530.245 202.905 530.095 202.265 530.095 201.515C530.095 200.445 530.405 199.585 531.025 198.935C531.645 198.275 532.525 197.945 533.665 197.945C535.065 197.945 536.045 198.4 536.605 199.31C537.175 200.22 537.46 201.575 537.46 203.375C537.46 204.635 537.345 205.675 537.115 206.495C536.895 207.315 536.515 207.94 535.975 208.37C535.445 208.8 534.715 209.015 533.785 209.015C532.765 209.015 531.97 208.74 531.4 208.19C530.83 207.64 530.505 206.94 530.425 206.09H531.685ZM533.8 203.9C534.47 203.9 535.02 203.695 535.45 203.285C535.88 202.865 536.095 202.3 536.095 201.59C536.095 200.84 535.885 200.235 535.465 199.775C535.045 199.315 534.455 199.085 533.695 199.085C532.995 199.085 532.435 199.305 532.015 199.745C531.605 200.185 531.4 200.765 531.4 201.485C531.4 202.215 531.605 202.8 532.015 203.24C532.425 203.68 533.02 203.9 533.8 203.9ZM546.293 199.34H541.028V202.76C541.258 202.44 541.598 202.18 542.048 201.98C542.498 201.77 542.983 201.665 543.503 201.665C544.333 201.665 545.008 201.84 545.528 202.19C546.048 202.53 546.418 202.975 546.638 203.525C546.868 204.065 546.983 204.64 546.983 205.25C546.983 205.97 546.848 206.615 546.578 207.185C546.308 207.755 545.893 208.205 545.333 208.535C544.783 208.865 544.098 209.03 543.278 209.03C542.228 209.03 541.378 208.76 540.728 208.22C540.078 207.68 539.683 206.96 539.543 206.06H540.878C541.008 206.63 541.283 207.075 541.703 207.395C542.123 207.715 542.653 207.875 543.293 207.875C544.083 207.875 544.678 207.64 545.078 207.17C545.478 206.69 545.678 206.06 545.678 205.28C545.678 204.5 545.478 203.9 545.078 203.48C544.678 203.05 544.088 202.835 543.308 202.835C542.778 202.835 542.313 202.965 541.913 203.225C541.523 203.475 541.238 203.82 541.058 204.26H539.768V198.14H546.293V199.34ZM548.497 200.6C548.497 199.92 548.702 199.38 549.112 198.98C549.522 198.57 550.047 198.365 550.687 198.365C551.327 198.365 551.852 198.57 552.262 198.98C552.672 199.38 552.877 199.92 552.877 200.6C552.877 201.29 552.672 201.84 552.262 202.25C551.852 202.65 551.327 202.85 550.687 202.85C550.047 202.85 549.522 202.65 549.112 202.25C548.702 201.84 548.497 201.29 548.497 200.6ZM557.257 198.53L551.182 209H549.832L555.907 198.53H557.257ZM550.687 199.205C550.347 199.205 550.077 199.325 549.877 199.565C549.687 199.795 549.592 200.14 549.592 200.6C549.592 201.06 549.687 201.41 549.877 201.65C550.077 201.89 550.347 202.01 550.687 202.01C551.027 202.01 551.297 201.89 551.497 201.65C551.697 201.4 551.797 201.05 551.797 200.6C551.797 200.14 551.697 199.795 551.497 199.565C551.297 199.325 551.027 199.205 550.687 199.205ZM554.242 206.93C554.242 206.24 554.447 205.695 554.857 205.295C555.267 204.885 555.792 204.68 556.432 204.68C557.072 204.68 557.592 204.885 557.992 205.295C558.402 205.695 558.607 206.24 558.607 206.93C558.607 207.61 558.402 208.155 557.992 208.565C557.592 208.975 557.072 209.18 556.432 209.18C555.792 209.18 555.267 208.98 554.857 208.58C554.447 208.17 554.242 207.62 554.242 206.93ZM556.417 205.535C556.077 205.535 555.807 205.655 555.607 205.895C555.407 206.125 555.307 206.47 555.307 206.93C555.307 207.38 555.407 207.725 555.607 207.965C555.807 208.195 556.077 208.31 556.417 208.31C556.757 208.31 557.027 208.195 557.227 207.965C557.427 207.725 557.527 207.38 557.527 206.93C557.527 206.47 557.427 206.125 557.227 205.895C557.027 205.655 556.757 205.535 556.417 205.535Z" fill="#999999"/>
<path d="M1 224H601V234H1V224Z" fill="#EEEEEE"/>
<path d="M1 224H571V234H1V224Z" fill="url(#paint2_linear_1_296)"/>
</g>
<defs>
<linearGradient id="paint0_linear_1_296" x1="1" y1="48" x2="541" y2="48" gradientUnits="userSpaceOnUse">
<stop stop-color="#FF4803"/>
<stop offset="0.597428" stop-color="#FFAE35"/>
</linearGradient>
<linearGradient id="paint1_linear_1_296" x1="1" y1="141" x2="481" y2="141" gradientUnits="userSpaceOnUse">
<stop stop-color="#FF4B05"/>
<stop offset="0.725882" stop-color="#FFAE35"/>
</linearGradient>
<linearGradient id="paint2_linear_1_296" x1="1" y1="234" x2="571" y2="234" gradientUnits="userSpaceOnUse">
<stop stop-color="#FF4D06"/>
<stop offset="0.542263" stop-color="#FFAC34"/>
</linearGradient>
<clipPath id="clip0_1_296">
<rect width="600.125" height="48" fill="white" transform="translate(0.875)"/>
</clipPath>
<clipPath id="clip1_1_296">
<rect width="600.125" height="48" fill="white" transform="translate(0.875 93)"/>
</clipPath>
<clipPath id="clip2_1_296">
<rect width="600.125" height="48" fill="white" transform="translate(0.875 186)"/>
</clipPath>
</defs>
</svg>
